<svg height="640pt" preserveAspectRatio="xMidYMid meet" viewBox="0 0 640 640" width="640pt" xmlns="http://www.w3.org/2000/svg"><path d="m0 3200v-3200h3200 3200v3200 3200h-3200-3200zm3495 1826c296-50 576-169 812-344 113-85 290-262 375-375 179-241 299-530 349-842 17-104 17-426 0-530-50-312-170-601-349-842-85-113-262-290-375-375-241-179-530-299-842-349-104-17-426-17-530 0-312 50-601 170-842 349-113 85-290 262-375 375-179 241-299 530-349 842-17 104-17 426 0 530 76 477 311 886 677 1179 273 218 595 352 954 396 103 12 386 4 495-14z" transform="matrix(.1 0 0 -.1 0 640)"/></svg>