<svg width="594" height="496" viewBox="0 0 594 496" fill="none" xmlns="http://www.w3.org/2000/svg">
<g clip-path="url(#clip0_1_5)">
<g filter="url(#filter0_d_1_5)">
<path d="M10.392 102V24.72H25.96V102H10.392ZM17.336 102V87.552H67.512V102H17.336ZM17.336 69.52V55.744H61.576V69.52H17.336ZM17.336 39.168V24.72H67.064V39.168H17.336ZM110.656 102L90.6076 24.72H105.84L125.104 102H110.656ZM79.4076 102V24.72H94.1916V102H79.4076ZM118.496 102L136.752 24.72H151.424L132.16 102H118.496ZM148.064 102V24.72H163.52V102H148.064ZM185.227 77.136V62.688H207.627C212.853 62.688 216.624 61.7173 218.939 59.776C221.328 57.76 222.523 54.8107 222.523 50.928C222.523 47.0453 221.328 44.1333 218.939 42.192C216.624 40.176 212.853 39.168 207.627 39.168H185.227V24.72H208.635C214.981 24.72 220.357 25.8027 224.763 27.968C229.243 30.0587 232.64 33.0827 234.955 37.04C237.269 40.9227 238.427 45.552 238.427 50.928C238.427 56.2293 237.269 60.8587 234.955 64.816C232.64 68.7733 229.243 71.8347 224.763 74C220.357 76.0907 214.981 77.136 208.635 77.136H185.227ZM178.283 102V24.72H193.851V102H178.283ZM281.096 103.456C274.003 103.456 267.768 101.851 262.392 98.64C257.091 95.4293 252.909 90.8373 249.848 84.864C246.861 78.8907 245.368 71.7227 245.368 63.36C245.368 54.9973 246.861 47.8293 249.848 41.856C252.909 35.808 257.091 31.216 262.392 28.08C267.768 24.8693 274.003 23.264 281.096 23.264C288.189 23.264 294.424 24.8693 299.8 28.08C305.176 31.216 309.357 35.808 312.344 41.856C315.405 47.8293 316.936 54.9973 316.936 63.36C316.936 71.7227 315.405 78.8907 312.344 84.864C309.357 90.8373 305.176 95.4293 299.8 98.64C294.424 101.851 288.189 103.456 281.096 103.456ZM281.096 88.896C287.219 88.896 292.072 86.7307 295.656 82.4C299.24 78.0693 301.032 71.7227 301.032 63.36C301.032 54.9973 299.24 48.6507 295.656 44.32C292.072 39.9893 287.219 37.824 281.096 37.824C275.048 37.824 270.195 39.9893 266.536 44.32C262.952 48.6507 261.16 54.9973 261.16 63.36C261.16 71.7227 262.952 78.0693 266.536 82.4C270.195 86.7307 275.048 88.896 281.096 88.896ZM337.438 102L321.086 24.72H336.99L352.334 102H337.438ZM347.742 102L362.526 24.72H376.638L361.742 102H347.742ZM386.494 102L371.598 24.72H386.046L401.166 102H386.494ZM396.574 102L411.582 24.72H427.15L410.798 102H396.574ZM435.423 102V24.72H450.991V102H435.423ZM442.367 102V87.552H492.543V102H442.367ZM442.367 69.52V55.744H486.607V69.52H442.367ZM442.367 39.168V24.72H492.095V39.168H442.367ZM511.383 74.896V60.448H534.007C538.711 60.448 542.146 59.552 544.311 57.76C546.476 55.968 547.559 53.3173 547.559 49.808C547.559 46.224 546.476 43.5733 544.311 41.856C542.146 40.064 538.711 39.168 534.007 39.168H511.383V24.72H535.127C544.087 24.72 551.031 26.9973 555.959 31.552C560.962 36.032 563.463 42.1173 563.463 49.808C563.463 57.424 560.962 63.5093 555.959 68.064C551.031 72.6187 544.087 74.896 535.127 74.896H511.383ZM504.439 102V24.72H520.007V102H504.439ZM547.783 102L527.287 68.512H543.527L565.367 102H547.783Z" fill="#4A4A4A"/>
</g>
<g filter="url(#filter1_d_1_5)">
<path d="M32.344 210.464L3 158.72H20.472L42.312 198.48L32.344 210.464ZM30.328 236V194.448H45.672V236H30.328ZM43.768 210.464L34.808 198.48L56.312 158.72H73.224L43.768 210.464ZM109.924 237.456C102.831 237.456 96.5961 235.851 91.2201 232.64C85.9188 229.429 81.7375 224.837 78.6761 218.864C75.6895 212.891 74.1961 205.723 74.1961 197.36C74.1961 188.997 75.6895 181.829 78.6761 175.856C81.7375 169.808 85.9188 165.216 91.2201 162.08C96.5961 158.869 102.831 157.264 109.924 157.264C117.017 157.264 123.252 158.869 128.628 162.08C134.004 165.216 138.185 169.808 141.172 175.856C144.233 181.829 145.764 188.997 145.764 197.36C145.764 205.723 144.233 212.891 141.172 218.864C138.185 224.837 134.004 229.429 128.628 232.64C123.252 235.851 117.017 237.456 109.924 237.456ZM109.924 222.896C116.047 222.896 120.9 220.731 124.484 216.4C128.068 212.069 129.86 205.723 129.86 197.36C129.86 188.997 128.068 182.651 124.484 178.32C120.9 173.989 116.047 171.824 109.924 171.824C103.876 171.824 99.0228 173.989 95.3641 178.32C91.7801 182.651 89.9881 188.997 89.9881 197.36C89.9881 205.723 91.7801 212.069 95.3641 216.4C99.0228 220.731 103.876 222.896 109.924 222.896ZM188.416 237.456C181.771 237.456 176.059 236.187 171.28 233.648C166.576 231.109 162.955 227.525 160.416 222.896C157.952 218.192 156.72 212.667 156.72 206.32V158.72H172.176V205.424C172.176 211.024 173.557 215.355 176.32 218.416C179.157 221.403 183.227 222.896 188.528 222.896C193.904 222.896 198.011 221.403 200.848 218.416C203.685 215.355 205.104 211.024 205.104 205.424V158.72H220.224V206.32C220.224 212.667 218.955 218.192 216.416 222.896C213.877 227.525 210.256 231.109 205.552 233.648C200.848 236.187 195.136 237.456 188.416 237.456ZM241.227 208.896V194.448H263.851C268.555 194.448 271.989 193.552 274.155 191.76C276.32 189.968 277.403 187.317 277.403 183.808C277.403 180.224 276.32 177.573 274.155 175.856C271.989 174.064 268.555 173.168 263.851 173.168H241.227V158.72H264.971C273.931 158.72 280.875 160.997 285.803 165.552C290.805 170.032 293.307 176.117 293.307 183.808C293.307 191.424 290.805 197.509 285.803 202.064C280.875 206.619 273.931 208.896 264.971 208.896H241.227ZM234.283 236V158.72H249.851V236H234.283ZM277.627 236L257.131 202.512H273.371L295.211 236H277.627Z" fill="#51B4D8"/>
</g>
<g filter="url(#filter2_d_1_5)">
<path d="M42.424 362.456C35.48 362.456 29.3573 360.813 24.056 357.528C18.8293 354.243 14.7227 349.613 11.736 343.64C8.824 337.592 7.368 330.499 7.368 322.36C7.368 314.147 8.824 307.053 11.736 301.08C14.7227 295.107 18.8293 290.477 24.056 287.192C29.3573 283.907 35.48 282.264 42.424 282.264C48.024 282.264 53.064 283.309 57.544 285.4C62.0987 287.491 65.9067 290.477 68.968 294.36C72.0293 298.168 74.12 302.76 75.24 308.136L59.896 312.392C59 307.389 57.0213 303.544 53.96 300.856C50.9733 298.168 47.0907 296.824 42.312 296.824C36.5627 296.824 31.9333 299.064 28.424 303.544C24.9147 308.024 23.16 314.296 23.16 322.36C23.16 330.349 24.9147 336.621 28.424 341.176C31.9333 345.656 36.5627 347.896 42.312 347.896C47.24 347.896 51.2347 346.552 54.296 343.864C57.3573 341.101 59.336 337.181 60.232 332.104L75.576 336.36C74.3813 341.811 72.2533 346.477 69.192 350.36C66.1307 354.243 62.3227 357.229 57.768 359.32C53.288 361.411 48.1733 362.456 42.424 362.456ZM135.909 361V283.72H151.365V361H135.909ZM86.517 361V283.72H102.085V361H86.517ZM93.461 328.856V314.408H144.421V328.856H93.461ZM198.955 362.456C191.862 362.456 185.627 360.851 180.251 357.64C174.95 354.429 170.769 349.837 167.707 343.864C164.721 337.891 163.227 330.723 163.227 322.36C163.227 313.997 164.721 306.829 167.707 300.856C170.769 294.808 174.95 290.216 180.251 287.08C185.627 283.869 191.862 282.264 198.955 282.264C206.049 282.264 212.283 283.869 217.659 287.08C223.035 290.216 227.217 294.808 230.203 300.856C233.265 306.829 234.795 313.997 234.795 322.36C234.795 330.723 233.265 337.891 230.203 343.864C227.217 349.837 223.035 354.429 217.659 357.64C212.283 360.851 206.049 362.456 198.955 362.456ZM198.955 347.896C205.078 347.896 209.931 345.731 213.515 341.4C217.099 337.069 218.891 330.723 218.891 322.36C218.891 313.997 217.099 307.651 213.515 303.32C209.931 298.989 205.078 296.824 198.955 296.824C192.907 296.824 188.054 298.989 184.395 303.32C180.811 307.651 179.019 313.997 179.019 322.36C179.019 330.723 180.811 337.069 184.395 341.4C188.054 345.731 192.907 347.896 198.955 347.896ZM246.423 361V283.72H261.991V361H246.423ZM308.862 362.456C301.918 362.456 295.795 360.813 290.494 357.528C285.267 354.243 281.16 349.613 278.174 343.64C275.262 337.592 273.806 330.499 273.806 322.36C273.806 314.147 275.262 307.053 278.174 301.08C281.16 295.107 285.267 290.477 290.494 287.192C295.795 283.907 301.918 282.264 308.862 282.264C314.462 282.264 319.502 283.309 323.982 285.4C328.536 287.491 332.344 290.477 335.406 294.36C338.467 298.168 340.558 302.76 341.678 308.136L326.334 312.392C325.438 307.389 323.459 303.544 320.398 300.856C317.411 298.168 313.528 296.824 308.75 296.824C303 296.824 298.371 299.064 294.862 303.544C291.352 308.024 289.598 314.296 289.598 322.36C289.598 330.349 291.352 336.621 294.862 341.176C298.371 345.656 303 347.896 308.75 347.896C313.678 347.896 317.672 346.552 320.734 343.864C323.795 341.101 325.774 337.181 326.67 332.104L342.014 336.36C340.819 341.811 338.691 346.477 335.63 350.36C332.568 354.243 328.76 357.229 324.206 359.32C319.726 361.411 314.611 362.456 308.862 362.456ZM352.954 361V283.72H368.523V361H352.954ZM359.899 361V346.552H410.075V361H359.899ZM359.899 328.52V314.744H404.139V328.52H359.899ZM359.899 298.168V283.72H409.627V298.168H359.899ZM449.186 362.456C441.122 362.456 434.402 360.627 429.026 356.968C423.725 353.309 419.917 347.896 417.602 340.728L432.722 335.688C434.215 340.168 436.418 343.453 439.33 345.544C442.242 347.56 445.826 348.568 450.082 348.568C454.487 348.568 457.81 347.821 460.05 346.328C462.29 344.76 463.41 342.744 463.41 340.28C463.41 337.965 462.626 336.061 461.058 334.568C459.49 333.075 457.399 331.88 454.786 330.984C452.173 330.013 449.335 329.117 446.274 328.296C443.213 327.4 440.151 326.429 437.09 325.384C434.029 324.339 431.191 322.995 428.578 321.352C425.965 319.635 423.874 317.469 422.306 314.856C420.813 312.168 420.066 308.808 420.066 304.776C420.066 300.445 421.186 296.6 423.426 293.24C425.666 289.88 428.951 287.229 433.282 285.288C437.613 283.272 442.802 282.264 448.85 282.264C456.167 282.264 462.365 284.019 467.442 287.528C472.594 290.963 476.215 295.965 478.306 302.536L463.746 307.576C462.402 303.544 460.349 300.632 457.586 298.84C454.823 296.973 451.463 296.04 447.506 296.04C443.25 296.04 440.189 296.824 438.322 298.392C436.53 299.885 435.634 301.677 435.634 303.768C435.634 305.859 436.418 307.539 437.986 308.808C439.554 310.003 441.607 311.048 444.146 311.944C446.759 312.84 449.634 313.699 452.77 314.52C455.906 315.267 459.005 316.237 462.066 317.432C465.202 318.552 468.039 320.045 470.578 321.912C473.191 323.704 475.282 326.019 476.85 328.856C478.418 331.693 479.202 335.24 479.202 339.496C479.202 343.976 477.97 347.933 475.506 351.368C473.117 354.803 469.682 357.528 465.202 359.544C460.797 361.485 455.458 362.456 449.186 362.456Z" fill="#4A4A4A"/>
</g>
<g filter="url(#filter3_d_1_5)">
<path d="M19.236 426.48C19.188 426.696 19.14 427.032 19.092 427.488C19.044 427.92 18.996 428.364 18.948 428.82C18.9 429.276 18.864 429.66 18.84 429.972C18.792 430.788 18.744 431.592 18.696 432.384C18.672 433.152 18.648 433.92 18.624 434.688C18.6 435.456 18.576 436.224 18.552 436.992C18.552 437.76 18.552 438.54 18.552 439.332C18.552 440.34 18.564 441.468 18.588 442.716C18.612 443.94 18.636 445.164 18.66 446.388C18.708 447.588 18.744 448.68 18.768 449.664C18.792 450.648 18.804 451.392 18.804 451.896C18.804 453.576 18.612 454.884 18.228 455.82C17.868 456.732 17.352 457.356 16.68 457.692C16.032 458.052 15.276 458.232 14.412 458.232C13.452 458.232 12.444 458.04 11.388 457.656C10.332 457.296 9.348 456.78 8.436 456.108C7.548 455.46 6.816 454.692 6.24 453.804C5.688 452.916 5.412 451.956 5.412 450.924C5.412 449.7 5.868 448.488 6.78 447.288C7.692 446.088 8.904 444.996 10.416 444.012C11.928 443.004 13.572 442.2 15.348 441.6C16.956 441.048 18.612 440.64 20.316 440.376C22.044 440.112 23.568 439.98 24.888 439.98C26.784 439.98 28.512 440.304 30.072 440.952C31.656 441.576 32.916 442.5 33.852 443.724C34.812 444.948 35.292 446.448 35.292 448.224C35.292 449.616 35.04 450.924 34.536 452.148C34.056 453.348 33.228 454.404 32.052 455.316C30.876 456.204 29.256 456.912 27.192 457.44C26.352 457.608 25.524 457.74 24.708 457.836C23.892 457.932 23.088 458.016 22.296 458.088L20.316 452.436C21.18 452.436 21.996 452.424 22.764 452.4C23.532 452.352 24.216 452.28 24.816 452.184C25.752 452.016 26.58 451.764 27.3 451.428C28.02 451.068 28.584 450.624 28.992 450.096C29.4 449.544 29.604 448.908 29.604 448.188C29.604 447.468 29.412 446.856 29.028 446.352C28.644 445.848 28.092 445.464 27.372 445.2C26.676 444.912 25.824 444.768 24.816 444.768C23.352 444.768 21.828 444.924 20.244 445.236C18.684 445.524 17.232 445.92 15.888 446.424C14.88 446.808 13.992 447.24 13.224 447.72C12.456 448.2 11.856 448.692 11.424 449.196C10.992 449.7 10.776 450.192 10.776 450.672C10.776 450.888 10.836 451.092 10.956 451.284C11.1 451.476 11.268 451.644 11.46 451.788C11.676 451.932 11.892 452.052 12.108 452.148C12.324 452.22 12.516 452.256 12.684 452.256C12.948 452.256 13.188 452.184 13.404 452.04C13.62 451.872 13.728 451.476 13.728 450.852C13.728 450.252 13.704 449.352 13.656 448.152C13.632 446.952 13.596 445.596 13.548 444.084C13.524 442.548 13.512 441.024 13.512 439.512C13.512 438.504 13.512 437.52 13.512 436.56C13.512 435.6 13.512 434.712 13.512 433.896C13.512 433.056 13.512 432.312 13.512 431.664C13.512 430.992 13.512 430.44 13.512 430.008C13.512 429.744 13.5 429.384 13.476 428.928C13.452 428.448 13.416 427.98 13.368 427.524C13.344 427.044 13.308 426.696 13.26 426.48H19.236ZM28.956 430.332C29.916 430.764 30.984 431.292 32.16 431.916C33.336 432.516 34.464 433.116 35.544 433.716C36.624 434.316 37.5 434.844 38.172 435.3L35.58 439.728C35.148 439.392 34.548 438.984 33.78 438.504C33.012 438.024 32.172 437.532 31.26 437.028C30.372 436.524 29.508 436.056 28.668 435.624C27.852 435.168 27.168 434.82 26.616 434.58L28.956 430.332ZM6.6 432.06C7.704 432.18 8.676 432.252 9.516 432.276C10.38 432.3 11.136 432.312 11.784 432.312C12.744 432.312 13.788 432.276 14.916 432.204C16.068 432.108 17.232 431.988 18.408 431.844C19.584 431.7 20.736 431.52 21.864 431.304C22.992 431.088 24.024 430.848 24.96 430.584L25.068 435.984C24.012 436.224 22.884 436.44 21.684 436.632C20.484 436.8 19.284 436.956 18.084 437.1C16.908 437.22 15.792 437.316 14.736 437.388C13.68 437.46 12.756 437.496 11.964 437.496C10.668 437.496 9.624 437.484 8.832 437.46C8.04 437.436 7.332 437.388 6.708 437.316L6.6 432.06ZM56.676 432.204L62.22 433.32C60.78 435.36 59.088 437.184 57.144 438.792C55.2 440.376 52.8 441.804 49.944 443.076C49.728 442.668 49.416 442.212 49.008 441.708C48.624 441.204 48.204 440.724 47.748 440.268C47.316 439.788 46.908 439.416 46.524 439.152C49.092 438.264 51.204 437.22 52.86 436.02C54.516 434.796 55.788 433.524 56.676 432.204ZM58.44 434.472H68.196V438.324H54.948L58.44 434.472ZM66.612 434.472H67.62L68.484 434.256L72.012 436.344C70.836 438.384 69.36 440.196 67.584 441.78C65.808 443.34 63.804 444.696 61.572 445.848C59.34 446.976 56.952 447.936 54.408 448.728C51.888 449.52 49.284 450.168 46.596 450.672C46.356 449.976 45.996 449.172 45.516 448.26C45.06 447.348 44.604 446.604 44.148 446.028C46.62 445.692 49.02 445.212 51.348 444.588C53.676 443.964 55.836 443.208 57.828 442.32C59.844 441.408 61.608 440.364 63.12 439.188C64.632 437.988 65.796 436.656 66.612 435.192V434.472ZM56.352 437.352C57.744 438.768 59.544 439.992 61.752 441.024C63.96 442.056 66.48 442.908 69.312 443.58C72.168 444.228 75.216 444.684 78.456 444.948C78.072 445.356 77.664 445.872 77.232 446.496C76.824 447.096 76.428 447.708 76.044 448.332C75.66 448.956 75.348 449.52 75.108 450.024C71.772 449.592 68.664 448.92 65.784 448.008C62.928 447.096 60.324 445.932 57.972 444.516C55.644 443.076 53.592 441.348 51.816 439.332L56.352 437.352ZM50.988 448.044H72.12V459.348H66.72V452.292H56.1V459.456H50.988V448.044ZM53.58 454.128H69.312V458.376H53.58V454.128ZM58.512 425.256H63.912V430.62H58.512V425.256ZM45.66 427.992H77.016V436.632H71.652V432.708H50.772V436.632H45.66V427.992ZM98.004 428.928H117.804V432.996H98.004V428.928ZM98.904 433.788H117.084V437.64H98.904V433.788ZM97.32 438.504H118.56V442.716H97.32V438.504ZM111.504 425.148L116.724 426.336C116.196 427.152 115.704 427.92 115.248 428.64C114.792 429.36 114.384 429.972 114.024 430.476L109.956 429.324C110.244 428.7 110.532 428.004 110.82 427.236C111.108 426.444 111.336 425.748 111.504 425.148ZM100.056 426.624L104.16 425.256C104.568 425.856 104.952 426.516 105.312 427.236C105.696 427.956 105.972 428.592 106.14 429.144L101.784 430.692C101.664 430.14 101.436 429.48 101.1 428.712C100.764 427.944 100.416 427.248 100.056 426.624ZM114.6 443.04L118.524 445.812C117.708 446.628 116.856 447.42 115.968 448.188C115.08 448.956 114.288 449.616 113.592 450.168L110.244 447.648C110.7 447.264 111.192 446.808 111.72 446.28C112.272 445.752 112.8 445.2 113.304 444.624C113.808 444.048 114.24 443.52 114.6 443.04ZM97.752 445.488L101.28 443.148C101.904 443.772 102.552 444.48 103.224 445.272C103.92 446.064 104.448 446.772 104.808 447.396L101.064 449.988C100.752 449.364 100.272 448.632 99.624 447.792C99 446.928 98.376 446.16 97.752 445.488ZM95.916 452.76C96.972 452.328 98.22 451.764 99.66 451.068C101.1 450.372 102.564 449.652 104.052 448.908L105.384 453.12C104.208 453.792 102.984 454.488 101.712 455.208C100.464 455.904 99.276 456.552 98.148 457.152L95.916 452.76ZM105.456 431.664H110.496V454.452C110.496 455.556 110.376 456.432 110.136 457.08C109.92 457.728 109.488 458.244 108.84 458.628C108.168 459.012 107.388 459.252 106.5 459.348C105.636 459.444 104.628 459.492 103.476 459.492C103.404 458.82 103.236 458.04 102.972 457.152C102.732 456.264 102.456 455.52 102.144 454.92C102.648 454.944 103.176 454.968 103.728 454.992C104.304 454.992 104.688 454.992 104.88 454.992C105.096 454.992 105.24 454.944 105.312 454.848C105.408 454.752 105.456 454.608 105.456 454.416V431.664ZM110.208 443.184C110.736 444.696 111.408 446.124 112.224 447.468C113.064 448.788 114.072 449.964 115.248 450.996C116.424 452.004 117.756 452.82 119.244 453.444C118.908 453.756 118.524 454.164 118.092 454.668C117.684 455.172 117.288 455.688 116.904 456.216C116.52 456.744 116.208 457.236 115.968 457.692C114.432 456.804 113.076 455.676 111.9 454.308C110.748 452.916 109.752 451.344 108.912 449.592C108.096 447.84 107.412 445.956 106.86 443.94L110.208 443.184ZM85.116 432.492H97.14V437.316H85.116V432.492ZM89.112 425.22H93.828V459.42H89.112V425.22ZM89.04 435.912L91.848 436.884C91.608 438.3 91.308 439.776 90.948 441.312C90.588 442.824 90.18 444.312 89.724 445.776C89.292 447.24 88.8 448.608 88.248 449.88C87.696 451.152 87.096 452.256 86.448 453.192C86.232 452.496 85.896 451.704 85.44 450.816C84.984 449.904 84.576 449.148 84.216 448.548C84.768 447.78 85.296 446.892 85.8 445.884C86.304 444.876 86.76 443.808 87.168 442.68C87.6 441.552 87.972 440.412 88.284 439.26C88.596 438.084 88.848 436.968 89.04 435.912ZM93.648 438.288C93.84 438.528 94.14 438.948 94.548 439.548C94.956 440.148 95.388 440.796 95.844 441.492C96.324 442.188 96.756 442.836 97.14 443.436C97.524 444.036 97.788 444.456 97.932 444.696L95.304 448.404C95.088 447.852 94.824 447.216 94.512 446.496C94.2 445.752 93.852 444.996 93.468 444.228C93.108 443.46 92.76 442.74 92.424 442.068C92.088 441.372 91.788 440.796 91.524 440.34L93.648 438.288ZM132.744 440.772H150.348V439.332H128.712V435.12H155.496V444.984H132.744V440.772ZM129.792 440.772H135.048C134.808 441.972 134.544 443.22 134.256 444.516C133.968 445.788 133.68 447.012 133.392 448.188C133.104 449.364 132.828 450.42 132.564 451.356L127.308 450.78C127.596 449.868 127.884 448.848 128.172 447.72C128.484 446.592 128.784 445.428 129.072 444.228C129.36 443.028 129.6 441.876 129.792 440.772ZM131.952 446.424H153.696V450.744H130.656L131.952 446.424ZM152.328 446.424H157.584C157.584 446.424 157.572 446.652 157.548 447.108C157.548 447.54 157.524 447.912 157.476 448.224C157.332 450.552 157.14 452.364 156.9 453.66C156.684 454.932 156.336 455.832 155.856 456.36C155.424 456.84 154.956 457.176 154.452 457.368C153.972 457.584 153.432 457.728 152.832 457.8C152.304 457.872 151.632 457.92 150.816 457.944C150 457.968 149.136 457.968 148.224 457.944C148.2 457.176 148.044 456.348 147.756 455.46C147.492 454.572 147.156 453.816 146.748 453.192C147.444 453.264 148.104 453.312 148.728 453.336C149.376 453.36 149.868 453.36 150.204 453.336C150.468 453.336 150.696 453.324 150.888 453.3C151.08 453.252 151.26 453.156 151.428 453.012C151.644 452.772 151.824 452.196 151.968 451.284C152.112 450.372 152.232 448.956 152.328 447.036V446.424ZM139.26 436.092H144.372V459.42H139.26V436.092ZM138.324 448.044L142.356 449.772C141.564 450.78 140.664 451.752 139.656 452.688C138.648 453.624 137.556 454.5 136.38 455.316C135.228 456.108 134.016 456.828 132.744 457.476C131.496 458.148 130.224 458.712 128.928 459.168C128.688 458.76 128.376 458.292 127.992 457.764C127.632 457.26 127.236 456.756 126.804 456.252C126.396 455.772 126.012 455.376 125.652 455.064C126.9 454.728 128.136 454.308 129.36 453.804C130.584 453.3 131.748 452.748 132.852 452.148C133.98 451.548 135.012 450.9 135.948 450.204C136.884 449.508 137.676 448.788 138.324 448.044ZM130.224 427.812H141.42V431.772H130.224V427.812ZM144.768 427.812H158.412V431.772H144.768V427.812ZM130.08 424.86L134.94 426.192C134.436 427.392 133.824 428.58 133.104 429.756C132.408 430.932 131.664 432.036 130.872 433.068C130.08 434.1 129.3 435 128.532 435.768C128.22 435.48 127.8 435.168 127.272 434.832C126.768 434.472 126.24 434.124 125.688 433.788C125.16 433.452 124.692 433.176 124.284 432.96C125.484 432 126.6 430.788 127.632 429.324C128.664 427.86 129.48 426.372 130.08 424.86ZM145.02 424.86L149.952 426.12C149.28 427.896 148.392 429.612 147.288 431.268C146.208 432.924 145.104 434.304 143.976 435.408C143.664 435.12 143.244 434.796 142.716 434.436C142.188 434.052 141.648 433.692 141.096 433.356C140.568 433.02 140.1 432.744 139.692 432.528C140.844 431.616 141.888 430.476 142.824 429.108C143.76 427.74 144.492 426.324 145.02 424.86ZM131.196 430.944L135.3 429.144C135.828 429.816 136.356 430.596 136.884 431.484C137.412 432.348 137.796 433.104 138.036 433.752L133.644 435.768C133.452 435.12 133.116 434.34 132.636 433.428C132.156 432.516 131.676 431.688 131.196 430.944ZM147.144 430.944L151.428 429.396C151.98 430.044 152.544 430.776 153.12 431.592C153.72 432.408 154.176 433.128 154.488 433.752L149.952 435.48C149.712 434.856 149.316 434.124 148.764 433.284C148.236 432.42 147.696 431.64 147.144 430.944ZM165.54 439.116H199.092V444.84H165.54V439.116ZM226.452 431.268C226.188 433.092 225.864 435.036 225.48 437.1C225.096 439.164 224.556 441.324 223.86 443.58C223.164 445.98 222.336 448.08 221.376 449.88C220.416 451.68 219.336 453.084 218.136 454.092C216.96 455.1 215.664 455.604 214.248 455.604C212.76 455.604 211.416 455.124 210.216 454.164C209.04 453.18 208.104 451.86 207.408 450.204C206.736 448.524 206.4 446.664 206.4 444.624C206.4 442.488 206.832 440.472 207.696 438.576C208.56 436.656 209.76 434.964 211.296 433.5C212.832 432.036 214.632 430.884 216.696 430.044C218.76 429.204 220.992 428.784 223.392 428.784C225.696 428.784 227.76 429.156 229.584 429.9C231.432 430.62 233.004 431.64 234.3 432.96C235.62 434.28 236.628 435.828 237.324 437.604C238.02 439.356 238.368 441.252 238.368 443.292C238.368 445.812 237.864 448.092 236.856 450.132C235.848 452.148 234.324 453.84 232.284 455.208C230.244 456.552 227.664 457.488 224.544 458.016L221.232 452.832C222 452.736 222.648 452.64 223.176 452.544C223.704 452.424 224.232 452.304 224.76 452.184C225.912 451.896 226.956 451.488 227.892 450.96C228.828 450.432 229.632 449.784 230.304 449.016C230.976 448.248 231.492 447.372 231.852 446.388C232.212 445.38 232.392 444.288 232.392 443.112C232.392 441.72 232.188 440.46 231.78 439.332C231.396 438.204 230.808 437.232 230.016 436.416C229.248 435.6 228.3 434.976 227.172 434.544C226.044 434.112 224.748 433.896 223.284 433.896C221.412 433.896 219.768 434.232 218.352 434.904C216.96 435.552 215.796 436.404 214.86 437.46C213.924 438.492 213.216 439.596 212.736 440.772C212.28 441.948 212.052 443.04 212.052 444.048C212.052 445.08 212.16 445.956 212.376 446.676C212.592 447.372 212.868 447.9 213.204 448.26C213.564 448.62 213.96 448.8 214.392 448.8C214.872 448.8 215.316 448.56 215.724 448.08C216.156 447.6 216.564 446.892 216.948 445.956C217.356 444.996 217.776 443.82 218.208 442.428C218.76 440.724 219.228 438.888 219.612 436.92C219.996 434.928 220.272 432.984 220.44 431.088L226.452 431.268ZM255.756 452.4C255.756 451.872 255.756 451.08 255.756 450.024C255.756 448.944 255.756 447.72 255.756 446.352C255.756 444.984 255.756 443.568 255.756 442.104C255.756 440.616 255.756 439.188 255.756 437.82C255.756 436.452 255.756 435.24 255.756 434.184C255.756 433.128 255.756 432.348 255.756 431.844C255.756 431.124 255.72 430.332 255.648 429.468C255.576 428.604 255.468 427.836 255.324 427.164H262.128C262.056 427.836 261.972 428.568 261.876 429.36C261.804 430.152 261.768 430.98 261.768 431.844C261.768 432.348 261.768 433.128 261.768 434.184C261.768 435.24 261.768 436.452 261.768 437.82C261.768 439.188 261.768 440.604 261.768 442.068C261.768 443.532 261.768 444.96 261.768 446.352C261.768 447.72 261.768 448.944 261.768 450.024C261.768 451.08 261.768 451.872 261.768 452.4C261.768 452.712 261.78 453.204 261.804 453.876C261.852 454.524 261.912 455.208 261.984 455.928C262.056 456.648 262.116 457.284 262.164 457.836H255.324C255.444 457.068 255.54 456.156 255.612 455.1C255.708 454.044 255.756 453.144 255.756 452.4ZM260.472 436.416C261.672 436.728 263.028 437.136 264.54 437.64C266.052 438.12 267.576 438.636 269.112 439.188C270.648 439.74 272.076 440.28 273.396 440.808C274.74 441.336 275.82 441.804 276.636 442.212L274.152 448.296C273.144 447.768 272.04 447.252 270.84 446.748C269.664 446.22 268.464 445.716 267.24 445.236C266.04 444.732 264.852 444.276 263.676 443.868C262.524 443.436 261.456 443.052 260.472 442.716V436.416ZM288.336 438.72C288.816 438.744 289.428 438.78 290.172 438.828C290.94 438.876 291.72 438.912 292.512 438.936C293.304 438.96 293.988 438.972 294.564 438.972C295.308 438.972 296.136 438.972 297.048 438.972C297.984 438.972 298.968 438.972 300 438.972C301.032 438.972 302.076 438.972 303.132 438.972C304.212 438.972 305.268 438.972 306.3 438.972C307.332 438.972 308.316 438.972 309.252 438.972C310.188 438.972 311.028 438.972 311.772 438.972C312.54 438.972 313.176 438.972 313.68 438.972C314.496 438.972 315.3 438.936 316.092 438.864C316.908 438.792 317.58 438.744 318.108 438.72V445.596C317.652 445.572 316.98 445.536 316.092 445.488C315.228 445.416 314.424 445.38 313.68 445.38C313.176 445.38 312.54 445.38 311.772 445.38C311.004 445.38 310.152 445.38 309.216 445.38C308.28 445.38 307.296 445.38 306.264 445.38C305.232 445.38 304.176 445.38 303.096 445.38C302.04 445.38 300.996 445.38 299.964 445.38C298.932 445.38 297.948 445.38 297.012 445.38C296.1 445.38 295.284 445.38 294.564 445.38C293.532 445.38 292.416 445.404 291.216 445.452C290.04 445.5 289.08 445.548 288.336 445.596V438.72ZM341.256 438.936C342.336 439.56 343.548 440.304 344.892 441.168C346.236 442.032 347.592 442.932 348.96 443.868C350.352 444.804 351.648 445.704 352.848 446.568C354.072 447.432 355.08 448.188 355.872 448.836L351.696 453.804C350.928 453.084 349.944 452.244 348.744 451.284C347.568 450.3 346.284 449.292 344.892 448.26C343.524 447.228 342.18 446.244 340.86 445.308C339.54 444.372 338.376 443.58 337.368 442.932L341.256 438.936ZM358.464 433.068C358.224 433.452 357.972 433.908 357.708 434.436C357.468 434.94 357.252 435.468 357.06 436.02C356.7 437.052 356.208 438.228 355.584 439.548C354.984 440.844 354.264 442.188 353.424 443.58C352.584 444.972 351.624 446.352 350.544 447.72C348.816 449.88 346.752 451.932 344.352 453.876C341.976 455.82 339.06 457.464 335.604 458.808L330.528 454.416C333.192 453.576 335.448 452.628 337.296 451.572C339.144 450.492 340.716 449.364 342.012 448.188C343.332 447.012 344.484 445.848 345.468 444.696C346.212 443.832 346.932 442.86 347.628 441.78C348.324 440.7 348.924 439.632 349.428 438.576C349.956 437.496 350.316 436.548 350.508 435.732H338.988L340.932 430.8H350.508C351.108 430.8 351.732 430.764 352.38 430.692C353.052 430.596 353.616 430.476 354.072 430.332L358.464 433.068ZM346.692 427.344C346.188 428.064 345.696 428.832 345.216 429.648C344.736 430.464 344.376 431.076 344.136 431.484C343.272 432.996 342.18 434.58 340.86 436.236C339.54 437.892 338.1 439.476 336.54 440.988C334.98 442.5 333.396 443.82 331.788 444.948L327.072 441.312C329.208 439.992 330.996 438.636 332.436 437.244C333.9 435.828 335.112 434.472 336.072 433.176C337.056 431.856 337.86 430.692 338.484 429.684C338.82 429.18 339.168 428.52 339.528 427.704C339.912 426.864 340.2 426.096 340.392 425.4L346.692 427.344ZM383.556 455.172C383.652 454.788 383.724 454.332 383.772 453.804C383.844 453.276 383.88 452.736 383.88 452.184C383.88 451.896 383.88 451.368 383.88 450.6C383.88 449.808 383.88 448.872 383.88 447.792C383.88 446.688 383.88 445.5 383.88 444.228C383.88 442.956 383.88 441.672 383.88 440.376C383.88 439.08 383.88 437.856 383.88 436.704C383.88 435.528 383.88 434.484 383.88 433.572C383.88 432.66 383.88 431.976 383.88 431.52C383.88 430.632 383.82 429.852 383.7 429.18C383.604 428.508 383.556 428.172 383.556 428.172H390.036C390.036 428.172 389.988 428.52 389.892 429.216C389.796 429.888 389.748 430.668 389.748 431.556C389.748 432.012 389.748 432.624 389.748 433.392C389.748 434.16 389.748 435.024 389.748 435.984C389.748 436.944 389.748 437.952 389.748 439.008C389.748 440.064 389.748 441.108 389.748 442.14C389.748 443.172 389.748 444.156 389.748 445.092C389.748 446.028 389.748 446.856 389.748 447.576C389.748 448.296 389.748 448.86 389.748 449.268C390.66 448.884 391.584 448.356 392.52 447.684C393.456 447.012 394.368 446.232 395.256 445.344C396.168 444.432 396.996 443.448 397.74 442.392L401.088 447.216C400.128 448.44 398.94 449.676 397.524 450.924C396.132 452.172 394.68 453.324 393.168 454.38C391.68 455.412 390.264 456.276 388.92 456.972C388.488 457.212 388.14 457.428 387.876 457.62C387.612 457.836 387.384 458.016 387.192 458.16L383.556 455.172ZM366.78 454.452C368.412 453.324 369.708 451.98 370.668 450.42C371.652 448.86 372.372 447.372 372.828 445.956C373.092 445.212 373.284 444.276 373.404 443.148C373.548 442.02 373.656 440.808 373.728 439.512C373.8 438.192 373.836 436.872 373.836 435.552C373.86 434.232 373.872 433.008 373.872 431.88C373.872 431.04 373.836 430.332 373.764 429.756C373.692 429.18 373.596 428.652 373.476 428.172H379.884C379.884 428.172 379.86 428.364 379.812 428.748C379.764 429.108 379.716 429.564 379.668 430.116C379.62 430.668 379.596 431.232 379.596 431.808C379.596 432.912 379.584 434.172 379.56 435.588C379.536 437.004 379.488 438.444 379.416 439.908C379.344 441.372 379.236 442.764 379.092 444.084C378.972 445.38 378.792 446.484 378.552 447.396C378 449.484 377.172 451.416 376.068 453.192C374.988 454.968 373.668 456.564 372.108 457.98L366.78 454.452ZM433.704 440.448C433.704 442.584 433.536 444.552 433.2 446.352C432.864 448.128 432.288 449.772 431.472 451.284C430.656 452.772 429.516 454.128 428.052 455.352C426.612 456.552 424.776 457.644 422.544 458.628L417.864 454.236C419.664 453.636 421.2 452.976 422.472 452.256C423.768 451.512 424.812 450.624 425.604 449.592C426.42 448.536 427.02 447.288 427.404 445.848C427.788 444.384 427.98 442.632 427.98 440.592V430.548C427.98 429.804 427.956 429.144 427.908 428.568C427.884 427.968 427.836 427.44 427.764 426.984H433.956C433.908 427.44 433.848 427.968 433.776 428.568C433.728 429.144 433.704 429.804 433.704 430.548V440.448ZM420.672 427.344C420.624 427.776 420.564 428.304 420.492 428.928C420.444 429.528 420.42 430.212 420.42 430.98V443.652C420.42 444.228 420.432 444.78 420.456 445.308C420.48 445.812 420.504 446.268 420.528 446.676C420.552 447.06 420.576 447.408 420.6 447.72H414.516C414.564 447.408 414.6 447.06 414.624 446.676C414.648 446.268 414.672 445.812 414.696 445.308C414.72 444.78 414.732 444.228 414.732 443.652V430.944C414.732 430.344 414.708 429.756 414.66 429.18C414.612 428.58 414.552 427.968 414.48 427.344H420.672ZM408.072 433.536C408.36 433.584 408.696 433.644 409.08 433.716C409.464 433.764 409.908 433.812 410.412 433.86C410.916 433.908 411.492 433.932 412.14 433.932H435.612C436.668 433.932 437.496 433.908 438.096 433.86C438.72 433.812 439.344 433.74 439.968 433.644V439.404C439.464 439.356 438.876 439.332 438.204 439.332C437.532 439.308 436.68 439.296 435.648 439.296H412.14C411.492 439.296 410.928 439.308 410.448 439.332C409.968 439.332 409.536 439.344 409.152 439.368C408.792 439.392 408.432 439.416 408.072 439.44V433.536ZM474.852 428.784C474.852 429.264 475.02 429.684 475.356 430.044C475.716 430.38 476.136 430.548 476.616 430.548C477.096 430.548 477.504 430.38 477.84 430.044C478.2 429.684 478.38 429.264 478.38 428.784C478.38 428.304 478.2 427.896 477.84 427.56C477.504 427.2 477.096 427.02 476.616 427.02C476.136 427.02 475.716 427.2 475.356 427.56C475.02 427.896 474.852 428.304 474.852 428.784ZM472.332 428.784C472.332 427.992 472.524 427.272 472.908 426.624C473.292 425.976 473.808 425.46 474.456 425.076C475.104 424.692 475.824 424.5 476.616 424.5C477.408 424.5 478.128 424.692 478.776 425.076C479.424 425.46 479.94 425.976 480.324 426.624C480.708 427.272 480.9 427.992 480.9 428.784C480.9 429.576 480.708 430.296 480.324 430.944C479.94 431.592 479.424 432.108 478.776 432.492C478.128 432.876 477.408 433.068 476.616 433.068C475.824 433.068 475.104 432.876 474.456 432.492C473.808 432.108 473.292 431.592 472.908 430.944C472.524 430.296 472.332 429.576 472.332 428.784ZM467.976 427.2C467.952 427.368 467.904 427.668 467.832 428.1C467.76 428.532 467.7 428.988 467.652 429.468C467.604 429.948 467.58 430.356 467.58 430.692C467.58 431.436 467.58 432.252 467.58 433.14C467.58 434.028 467.58 434.916 467.58 435.804C467.58 436.692 467.58 437.52 467.58 438.288C467.58 438.768 467.58 439.428 467.58 440.268C467.58 441.108 467.58 442.056 467.58 443.112C467.58 444.144 467.58 445.224 467.58 446.352C467.58 447.48 467.58 448.584 467.58 449.664C467.58 450.72 467.58 451.692 467.58 452.58C467.58 453.444 467.58 454.152 467.58 454.704C467.58 455.808 467.232 456.696 466.536 457.368C465.864 458.04 464.832 458.376 463.44 458.376C462.72 458.376 462 458.364 461.28 458.34C460.584 458.316 459.888 458.28 459.192 458.232C458.52 458.184 457.848 458.124 457.176 458.052L456.636 452.688C457.404 452.832 458.136 452.94 458.832 453.012C459.552 453.06 460.128 453.084 460.56 453.084C461.016 453.084 461.328 453 461.496 452.832C461.688 452.64 461.796 452.316 461.82 451.86C461.82 451.692 461.82 451.284 461.82 450.636C461.844 449.988 461.856 449.208 461.856 448.296C461.856 447.36 461.856 446.376 461.856 445.344C461.856 444.288 461.856 443.28 461.856 442.32C461.856 441.36 461.856 440.52 461.856 439.8C461.856 439.08 461.856 438.576 461.856 438.288C461.856 437.856 461.856 437.184 461.856 436.272C461.856 435.36 461.856 434.388 461.856 433.356C461.856 432.324 461.856 431.424 461.856 430.656C461.856 430.152 461.82 429.54 461.748 428.82C461.676 428.076 461.604 427.536 461.532 427.2H467.976ZM449.508 432.78C450.06 432.852 450.672 432.924 451.344 432.996C452.04 433.044 452.664 433.068 453.216 433.068C453.528 433.068 454.116 433.068 454.98 433.068C455.844 433.068 456.876 433.068 458.076 433.068C459.276 433.068 460.572 433.068 461.964 433.068C463.356 433.068 464.748 433.068 466.14 433.068C467.556 433.068 468.876 433.068 470.1 433.068C471.348 433.068 472.428 433.068 473.34 433.068C474.252 433.068 474.912 433.068 475.32 433.068C475.872 433.068 476.532 433.044 477.3 432.996C478.068 432.948 478.704 432.888 479.208 432.816V438.504C478.608 438.456 477.948 438.42 477.228 438.396C476.508 438.372 475.884 438.36 475.356 438.36C474.948 438.36 474.288 438.36 473.376 438.36C472.488 438.36 471.42 438.36 470.172 438.36C468.948 438.36 467.64 438.36 466.248 438.36C464.856 438.36 463.464 438.36 462.072 438.36C460.68 438.36 459.372 438.36 458.148 438.36C456.948 438.36 455.916 438.36 455.052 438.36C454.188 438.36 453.576 438.36 453.216 438.36C452.688 438.36 452.064 438.372 451.344 438.396C450.648 438.42 450.036 438.456 449.508 438.504V432.78ZM459.192 443.256C458.76 444.072 458.244 444.96 457.644 445.92C457.068 446.856 456.444 447.804 455.772 448.764C455.124 449.7 454.488 450.576 453.864 451.392C453.264 452.184 452.724 452.844 452.244 453.372L447.528 450.168C448.128 449.592 448.74 448.932 449.364 448.188C449.988 447.444 450.6 446.664 451.2 445.848C451.8 445.032 452.352 444.204 452.856 443.364C453.384 442.524 453.84 441.708 454.224 440.916L459.192 443.256ZM474.888 440.736C475.344 441.312 475.848 442.008 476.4 442.824C476.952 443.616 477.516 444.468 478.092 445.38C478.668 446.268 479.208 447.144 479.712 448.008C480.216 448.848 480.648 449.592 481.008 450.24L475.896 453.048C475.488 452.232 475.032 451.38 474.528 450.492C474.048 449.58 473.544 448.68 473.016 447.792C472.512 446.904 472.008 446.076 471.504 445.308C471 444.54 470.544 443.88 470.136 443.328L474.888 440.736ZM489.936 438.72C490.416 438.744 491.028 438.78 491.772 438.828C492.54 438.876 493.32 438.912 494.112 438.936C494.904 438.96 495.588 438.972 496.164 438.972C496.908 438.972 497.736 438.972 498.648 438.972C499.584 438.972 500.568 438.972 501.6 438.972C502.632 438.972 503.676 438.972 504.732 438.972C505.812 438.972 506.868 438.972 507.9 438.972C508.932 438.972 509.916 438.972 510.852 438.972C511.788 438.972 512.628 438.972 513.372 438.972C514.14 438.972 514.776 438.972 515.28 438.972C516.096 438.972 516.9 438.936 517.692 438.864C518.508 438.792 519.18 438.744 519.708 438.72V445.596C519.252 445.572 518.58 445.536 517.692 445.488C516.828 445.416 516.024 445.38 515.28 445.38C514.776 445.38 514.14 445.38 513.372 445.38C512.604 445.38 511.752 445.38 510.816 445.38C509.88 445.38 508.896 445.38 507.864 445.38C506.832 445.38 505.776 445.38 504.696 445.38C503.64 445.38 502.596 445.38 501.564 445.38C500.532 445.38 499.548 445.38 498.612 445.38C497.7 445.38 496.884 445.38 496.164 445.38C495.132 445.38 494.016 445.404 492.816 445.452C491.64 445.5 490.68 445.548 489.936 445.596V438.72ZM537.996 452.4C537.996 451.872 537.996 451.08 537.996 450.024C537.996 448.944 537.996 447.72 537.996 446.352C537.996 444.984 537.996 443.568 537.996 442.104C537.996 440.616 537.996 439.188 537.996 437.82C537.996 436.452 537.996 435.24 537.996 434.184C537.996 433.128 537.996 432.348 537.996 431.844C537.996 431.124 537.96 430.332 537.888 429.468C537.816 428.604 537.708 427.836 537.564 427.164H544.368C544.296 427.836 544.212 428.568 544.116 429.36C544.044 430.152 544.008 430.98 544.008 431.844C544.008 432.348 544.008 433.128 544.008 434.184C544.008 435.24 544.008 436.452 544.008 437.82C544.008 439.188 544.008 440.604 544.008 442.068C544.008 443.532 544.008 444.96 544.008 446.352C544.008 447.72 544.008 448.944 544.008 450.024C544.008 451.08 544.008 451.872 544.008 452.4C544.008 452.712 544.02 453.204 544.044 453.876C544.092 454.524 544.152 455.208 544.224 455.928C544.296 456.648 544.356 457.284 544.404 457.836H537.564C537.684 457.068 537.78 456.156 537.852 455.1C537.948 454.044 537.996 453.144 537.996 452.4ZM542.712 436.416C543.912 436.728 545.268 437.136 546.78 437.64C548.292 438.12 549.816 438.636 551.352 439.188C552.888 439.74 554.316 440.28 555.636 440.808C556.98 441.336 558.06 441.804 558.876 442.212L556.392 448.296C555.384 447.768 554.28 447.252 553.08 446.748C551.904 446.22 550.704 445.716 549.48 445.236C548.28 444.732 547.092 444.276 545.916 443.868C544.764 443.436 543.696 443.052 542.712 442.716V436.416Z" fill="#4A4A4A"/>
</g>
</g>
<defs>
<filter id="filter0_d_1_5" x="10.392" y="23.264" width="570.975" height="96.192" filterUnits="userSpaceOnUse" color-interpolation-filters="sRGB">
<feFlood flood-opacity="0" result="BackgroundImageFix"/>
<feColorMatrix in="SourceAlpha" type="matrix" values="0 0 0 0 0 0 0 0 0 0 0 0 0 0 0 0 0 0 127 0" result="hardAlpha"/>
<feOffset dx="8" dy="8"/>
<feGaussianBlur stdDeviation="4"/>
<feComposite in2="hardAlpha" operator="out"/>
<feColorMatrix type="matrix" values="0 0 0 0 1 0 0 0 0 1 0 0 0 0 1 0 0 0 1 0"/>
<feBlend mode="normal" in2="BackgroundImageFix" result="effect1_dropShadow_1_5"/>
<feBlend mode="normal" in="SourceGraphic" in2="effect1_dropShadow_1_5" result="shape"/>
</filter>
<filter id="filter1_d_1_5" x="3" y="157.264" width="308.211" height="96.192" filterUnits="userSpaceOnUse" color-interpolation-filters="sRGB">
<feFlood flood-opacity="0" result="BackgroundImageFix"/>
<feColorMatrix in="SourceAlpha" type="matrix" values="0 0 0 0 0 0 0 0 0 0 0 0 0 0 0 0 0 0 127 0" result="hardAlpha"/>
<feOffset dx="8" dy="8"/>
<feGaussianBlur stdDeviation="4"/>
<feComposite in2="hardAlpha" operator="out"/>
<feColorMatrix type="matrix" values="0 0 0 0 1 0 0 0 0 1 0 0 0 0 1 0 0 0 1 0"/>
<feBlend mode="normal" in2="BackgroundImageFix" result="effect1_dropShadow_1_5"/>
<feBlend mode="normal" in="SourceGraphic" in2="effect1_dropShadow_1_5" result="shape"/>
</filter>
<filter id="filter2_d_1_5" x="7.36801" y="282.264" width="487.834" height="96.192" filterUnits="userSpaceOnUse" color-interpolation-filters="sRGB">
<feFlood flood-opacity="0" result="BackgroundImageFix"/>
<feColorMatrix in="SourceAlpha" type="matrix" values="0 0 0 0 0 0 0 0 0 0 0 0 0 0 0 0 0 0 127 0" result="hardAlpha"/>
<feOffset dx="8" dy="8"/>
<feGaussianBlur stdDeviation="4"/>
<feComposite in2="hardAlpha" operator="out"/>
<feColorMatrix type="matrix" values="0 0 0 0 1 0 0 0 0 1 0 0 0 0 1 0 0 0 1 0"/>
<feBlend mode="normal" in2="BackgroundImageFix" result="effect1_dropShadow_1_5"/>
<feBlend mode="normal" in="SourceGraphic" in2="effect1_dropShadow_1_5" result="shape"/>
</filter>
<filter id="filter3_d_1_5" x="5.41199" y="424.5" width="569.464" height="50.992" filterUnits="userSpaceOnUse" color-interpolation-filters="sRGB">
<feFlood flood-opacity="0" result="BackgroundImageFix"/>
<feColorMatrix in="SourceAlpha" type="matrix" values="0 0 0 0 0 0 0 0 0 0 0 0 0 0 0 0 0 0 127 0" result="hardAlpha"/>
<feOffset dx="8" dy="8"/>
<feGaussianBlur stdDeviation="4"/>
<feComposite in2="hardAlpha" operator="out"/>
<feColorMatrix type="matrix" values="0 0 0 0 1 0 0 0 0 1 0 0 0 0 1 0 0 0 1 0"/>
<feBlend mode="normal" in2="BackgroundImageFix" result="effect1_dropShadow_1_5"/>
<feBlend mode="normal" in="SourceGraphic" in2="effect1_dropShadow_1_5" result="shape"/>
</filter>
<clipPath id="clip0_1_5">
<rect width="594" height="496" fill="white"/>
</clipPath>
</defs>
</svg>
